<?xml version="1.0" encoding="UTF-8"?>
<svg xmlns="http://www.w3.org/2000/svg" width="1200" height="760" viewBox="0 0 1200 760" role="img" aria-label="plate-11-dont-cry-tonight-apc-map.svg">
  <defs>
    <style>
      .title { font: 700 28px Arial, sans-serif; fill: #20242b; }
      .subtitle { font: 400 16px Arial, sans-serif; fill: #6b7280; }
      .label { font: 700 13px Arial, sans-serif; fill: #20242b; }
      .small { font: 400 11px Arial, sans-serif; fill: #20242b; }
      .tiny { font: 400 9px Arial, sans-serif; fill: #20242b; }
      .white { fill: #fff; }
      .mono { font: 700 10px Menlo, Consolas, monospace; fill: #20242b; }
    </style>
  </defs>
  <rect width="100%" height="100%" fill="#f6f3eb"/>
  <text x="34" y="42" class="title" text-anchor="start">Don't Cry Tonight APC40 remix study</text><text x="36" y="66" class="subtitle" text-anchor="start">Eight tracks by eight scenes: use APC grid, scene launch, faders, mutes, sends, and device macros.</text>

    <rect x="34" y="86" width="1132" height="640" rx="10" fill="#ffffff" stroke="#b8b2a7" stroke-width="1"/>
    <rect x="34" y="86" width="1132" height="42" rx="10" fill="#dedbd3" stroke="#b8b2a7" stroke-width="1"/>
    <text x="60" y="113" class="label" text-anchor="start">Ableton Live 12 - Session View</text>

      <text x="70" y="156" class="label" text-anchor="start">Tempo: 116-122 BPM</text>
      <text x="288" y="156" class="label" text-anchor="start">Global Quantization: 1 Bar</text>
      <text x="560" y="156" class="label" text-anchor="start">Practice length: 64 bars</text>
      <rect x="62" y="188" width="104" height="32" rx="5" fill="#eef2ff" stroke="#b8b2a7" stroke-width="1"/><text x="114" y="209" class="label" text-anchor="middle">KICK</text><rect x="180" y="188" width="104" height="32" rx="5" fill="#eef2ff" stroke="#b8b2a7" stroke-width="1"/><text x="232" y="209" class="label" text-anchor="middle">CLAP</text><rect x="298" y="188" width="104" height="32" rx="5" fill="#eef2ff" stroke="#b8b2a7" stroke-width="1"/><text x="350" y="209" class="label" text-anchor="middle">HATS</text><rect x="416" y="188" width="104" height="32" rx="5" fill="#eef2ff" stroke="#b8b2a7" stroke-width="1"/><text x="468" y="209" class="label" text-anchor="middle">BASS</text><rect x="534" y="188" width="104" height="32" rx="5" fill="#eef2ff" stroke="#b8b2a7" stroke-width="1"/><text x="586" y="209" class="label" text-anchor="middle">CHORDS</text><rect x="652" y="188" width="104" height="32" rx="5" fill="#eef2ff" stroke="#b8b2a7" stroke-width="1"/><text x="704" y="209" class="label" text-anchor="middle">LEAD</text><rect x="770" y="188" width="104" height="32" rx="5" fill="#eef2ff" stroke="#b8b2a7" stroke-width="1"/><text x="822" y="209" class="label" text-anchor="middle">PAD</text><rect x="888" y="188" width="104" height="32" rx="5" fill="#eef2ff" stroke="#b8b2a7" stroke-width="1"/><text x="940" y="209" class="label" text-anchor="middle">FX</text>
      <rect x="62" y="238" width="104" height="36" rx="5" fill="#dcfce7" stroke="#b8b2a7" stroke-width="1"/><text x="114" y="261" class="tiny" text-anchor="middle">soft kick</text><rect x="180" y="238" width="104" height="36" rx="5" fill="#fff0cf" stroke="#b8b2a7" stroke-width="1"/><text x="232" y="261" class="tiny" text-anchor="middle">empty</text><rect x="298" y="238" width="104" height="36" rx="5" fill="#dbeafe" stroke="#b8b2a7" stroke-width="1"/><text x="350" y="261" class="tiny" text-anchor="middle">hat pulse</text><rect x="416" y="238" width="104" height="36" rx="5" fill="#ede9fe" stroke="#b8b2a7" stroke-width="1"/><text x="468" y="261" class="tiny" text-anchor="middle">empty</text><rect x="534" y="238" width="104" height="36" rx="5" fill="#ffe4e6" stroke="#b8b2a7" stroke-width="1"/><text x="586" y="261" class="tiny" text-anchor="middle">filtered</text><rect x="652" y="238" width="104" height="36" rx="5" fill="#ccfbf1" stroke="#b8b2a7" stroke-width="1"/><text x="704" y="261" class="tiny" text-anchor="middle">empty</text><rect x="770" y="238" width="104" height="36" rx="5" fill="#f3e8ff" stroke="#b8b2a7" stroke-width="1"/><text x="822" y="261" class="tiny" text-anchor="middle">dark pad</text><rect x="888" y="238" width="104" height="36" rx="5" fill="#e5e7eb" stroke="#b8b2a7" stroke-width="1"/><text x="940" y="261" class="tiny" text-anchor="middle">noise</text><rect x="1026" y="240" width="78" height="30" rx="4" fill="#242830" stroke="#111" stroke-width="1"/><text x="1065" y="258" style="font: 700 9px Arial, sans-serif; fill: #fff;" text-anchor="middle">Intro</text><rect x="62" y="290" width="104" height="36" rx="5" fill="#dcfce7" stroke="#b8b2a7" stroke-width="1"/><text x="114" y="313" class="tiny" text-anchor="middle">4-on-floor</text><rect x="180" y="290" width="104" height="36" rx="5" fill="#fff0cf" stroke="#b8b2a7" stroke-width="1"/><text x="232" y="313" class="tiny" text-anchor="middle">backbeat</text><rect x="298" y="290" width="104" height="36" rx="5" fill="#dbeafe" stroke="#b8b2a7" stroke-width="1"/><text x="350" y="313" class="tiny" text-anchor="middle">8th hats</text><rect x="416" y="290" width="104" height="36" rx="5" fill="#ede9fe" stroke="#b8b2a7" stroke-width="1"/><text x="468" y="313" class="tiny" text-anchor="middle">octave</text><rect x="534" y="290" width="104" height="36" rx="5" fill="#ffe4e6" stroke="#b8b2a7" stroke-width="1"/><text x="586" y="313" class="tiny" text-anchor="middle">low stab</text><rect x="652" y="290" width="104" height="36" rx="5" fill="#ccfbf1" stroke="#b8b2a7" stroke-width="1"/><text x="704" y="313" class="tiny" text-anchor="middle">empty</text><rect x="770" y="290" width="104" height="36" rx="5" fill="#f3e8ff" stroke="#b8b2a7" stroke-width="1"/><text x="822" y="313" class="tiny" text-anchor="middle">pad</text><rect x="888" y="290" width="104" height="36" rx="5" fill="#e5e7eb" stroke="#b8b2a7" stroke-width="1"/><text x="940" y="313" class="tiny" text-anchor="middle">short riser</text><rect x="1026" y="292" width="78" height="30" rx="4" fill="#242830" stroke="#111" stroke-width="1"/><text x="1065" y="310" style="font: 700 9px Arial, sans-serif; fill: #fff;" text-anchor="middle">Groove</text><rect x="62" y="342" width="104" height="36" rx="5" fill="#dcfce7" stroke="#b8b2a7" stroke-width="1"/><text x="114" y="365" class="tiny" text-anchor="middle">kick</text><rect x="180" y="342" width="104" height="36" rx="5" fill="#fff0cf" stroke="#b8b2a7" stroke-width="1"/><text x="232" y="365" class="tiny" text-anchor="middle">clap</text><rect x="298" y="342" width="104" height="36" rx="5" fill="#dbeafe" stroke="#b8b2a7" stroke-width="1"/><text x="350" y="365" class="tiny" text-anchor="middle">hat lift</text><rect x="416" y="342" width="104" height="36" rx="5" fill="#ede9fe" stroke="#b8b2a7" stroke-width="1"/><text x="468" y="365" class="tiny" text-anchor="middle">bass</text><rect x="534" y="342" width="104" height="36" rx="5" fill="#ffe4e6" stroke="#b8b2a7" stroke-width="1"/><text x="586" y="365" class="tiny" text-anchor="middle">chords</text><rect x="652" y="342" width="104" height="36" rx="5" fill="#ccfbf1" stroke="#b8b2a7" stroke-width="1"/><text x="704" y="365" class="tiny" text-anchor="middle">lead/vocal</text><rect x="770" y="342" width="104" height="36" rx="5" fill="#f3e8ff" stroke="#b8b2a7" stroke-width="1"/><text x="822" y="365" class="tiny" text-anchor="middle">pad</text><rect x="888" y="342" width="104" height="36" rx="5" fill="#e5e7eb" stroke="#b8b2a7" stroke-width="1"/><text x="940" y="365" class="tiny" text-anchor="middle">delay</text><rect x="1026" y="344" width="78" height="30" rx="4" fill="#242830" stroke="#111" stroke-width="1"/><text x="1065" y="362" style="font: 700 9px Arial, sans-serif; fill: #fff;" text-anchor="middle">Verse</text><rect x="62" y="394" width="104" height="36" rx="5" fill="#dcfce7" stroke="#b8b2a7" stroke-width="1"/><text x="114" y="417" class="tiny" text-anchor="middle">kick</text><rect x="180" y="394" width="104" height="36" rx="5" fill="#fff0cf" stroke="#b8b2a7" stroke-width="1"/><text x="232" y="417" class="tiny" text-anchor="middle">clap</text><rect x="298" y="394" width="104" height="36" rx="5" fill="#dbeafe" stroke="#b8b2a7" stroke-width="1"/><text x="350" y="417" class="tiny" text-anchor="middle">open hat</text><rect x="416" y="394" width="104" height="36" rx="5" fill="#ede9fe" stroke="#b8b2a7" stroke-width="1"/><text x="468" y="417" class="tiny" text-anchor="middle">bass</text><rect x="534" y="394" width="104" height="36" rx="5" fill="#ffe4e6" stroke="#b8b2a7" stroke-width="1"/><text x="586" y="417" class="tiny" text-anchor="middle">filter open</text><rect x="652" y="394" width="104" height="36" rx="5" fill="#ccfbf1" stroke="#b8b2a7" stroke-width="1"/><text x="704" y="417" class="tiny" text-anchor="middle">answer</text><rect x="770" y="394" width="104" height="36" rx="5" fill="#f3e8ff" stroke="#b8b2a7" stroke-width="1"/><text x="822" y="417" class="tiny" text-anchor="middle">wide pad</text><rect x="888" y="394" width="104" height="36" rx="5" fill="#e5e7eb" stroke="#b8b2a7" stroke-width="1"/><text x="940" y="417" class="tiny" text-anchor="middle">riser</text><rect x="1026" y="396" width="78" height="30" rx="4" fill="#242830" stroke="#111" stroke-width="1"/><text x="1065" y="414" style="font: 700 9px Arial, sans-serif; fill: #fff;" text-anchor="middle">Lift</text><rect x="62" y="446" width="104" height="36" rx="5" fill="#dcfce7" stroke="#b8b2a7" stroke-width="1"/><text x="114" y="469" class="tiny" text-anchor="middle">full kick</text><rect x="180" y="446" width="104" height="36" rx="5" fill="#fff0cf" stroke="#b8b2a7" stroke-width="1"/><text x="232" y="469" class="tiny" text-anchor="middle">clap</text><rect x="298" y="446" width="104" height="36" rx="5" fill="#dbeafe" stroke="#b8b2a7" stroke-width="1"/><text x="350" y="469" class="tiny" text-anchor="middle">hat+open</text><rect x="416" y="446" width="104" height="36" rx="5" fill="#ede9fe" stroke="#b8b2a7" stroke-width="1"/><text x="468" y="469" class="tiny" text-anchor="middle">full bass</text><rect x="534" y="446" width="104" height="36" rx="5" fill="#ffe4e6" stroke="#b8b2a7" stroke-width="1"/><text x="586" y="469" class="tiny" text-anchor="middle">wide chords</text><rect x="652" y="446" width="104" height="36" rx="5" fill="#ccfbf1" stroke="#b8b2a7" stroke-width="1"/><text x="704" y="469" class="tiny" text-anchor="middle">main hook</text><rect x="770" y="446" width="104" height="36" rx="5" fill="#f3e8ff" stroke="#b8b2a7" stroke-width="1"/><text x="822" y="469" class="tiny" text-anchor="middle">wide pad</text><rect x="888" y="446" width="104" height="36" rx="5" fill="#e5e7eb" stroke="#b8b2a7" stroke-width="1"/><text x="940" y="469" class="tiny" text-anchor="middle">crash</text><rect x="1026" y="448" width="78" height="30" rx="4" fill="#242830" stroke="#111" stroke-width="1"/><text x="1065" y="466" style="font: 700 9px Arial, sans-serif; fill: #fff;" text-anchor="middle">Chorus A</text><rect x="62" y="498" width="104" height="36" rx="5" fill="#dcfce7" stroke="#b8b2a7" stroke-width="1"/><text x="114" y="521" class="tiny" text-anchor="middle">full kick</text><rect x="180" y="498" width="104" height="36" rx="5" fill="#fff0cf" stroke="#b8b2a7" stroke-width="1"/><text x="232" y="521" class="tiny" text-anchor="middle">clap fill</text><rect x="298" y="498" width="104" height="36" rx="5" fill="#dbeafe" stroke="#b8b2a7" stroke-width="1"/><text x="350" y="521" class="tiny" text-anchor="middle">hat fill</text><rect x="416" y="498" width="104" height="36" rx="5" fill="#ede9fe" stroke="#b8b2a7" stroke-width="1"/><text x="468" y="521" class="tiny" text-anchor="middle">bass var</text><rect x="534" y="498" width="104" height="36" rx="5" fill="#ffe4e6" stroke="#b8b2a7" stroke-width="1"/><text x="586" y="521" class="tiny" text-anchor="middle">chords var</text><rect x="652" y="498" width="104" height="36" rx="5" fill="#ccfbf1" stroke="#b8b2a7" stroke-width="1"/><text x="704" y="521" class="tiny" text-anchor="middle">hook var</text><rect x="770" y="498" width="104" height="36" rx="5" fill="#f3e8ff" stroke="#b8b2a7" stroke-width="1"/><text x="822" y="521" class="tiny" text-anchor="middle">pad high</text><rect x="888" y="498" width="104" height="36" rx="5" fill="#e5e7eb" stroke="#b8b2a7" stroke-width="1"/><text x="940" y="521" class="tiny" text-anchor="middle">delay throw</text><rect x="1026" y="500" width="78" height="30" rx="4" fill="#242830" stroke="#111" stroke-width="1"/><text x="1065" y="518" style="font: 700 9px Arial, sans-serif; fill: #fff;" text-anchor="middle">Chorus B</text><rect x="62" y="550" width="104" height="36" rx="5" fill="#dcfce7" stroke="#b8b2a7" stroke-width="1"/><text x="114" y="573" class="tiny" text-anchor="middle">empty</text><rect x="180" y="550" width="104" height="36" rx="5" fill="#fff0cf" stroke="#b8b2a7" stroke-width="1"/><text x="232" y="573" class="tiny" text-anchor="middle">empty</text><rect x="298" y="550" width="104" height="36" rx="5" fill="#dbeafe" stroke="#b8b2a7" stroke-width="1"/><text x="350" y="573" class="tiny" text-anchor="middle">hat ghost</text><rect x="416" y="550" width="104" height="36" rx="5" fill="#ede9fe" stroke="#b8b2a7" stroke-width="1"/><text x="468" y="573" class="tiny" text-anchor="middle">bass hold</text><rect x="534" y="550" width="104" height="36" rx="5" fill="#ffe4e6" stroke="#b8b2a7" stroke-width="1"/><text x="586" y="573" class="tiny" text-anchor="middle">pad chord</text><rect x="652" y="550" width="104" height="36" rx="5" fill="#ccfbf1" stroke="#b8b2a7" stroke-width="1"/><text x="704" y="573" class="tiny" text-anchor="middle">lead/vocal</text><rect x="770" y="550" width="104" height="36" rx="5" fill="#f3e8ff" stroke="#b8b2a7" stroke-width="1"/><text x="822" y="573" class="tiny" text-anchor="middle">filter pad</text><rect x="888" y="550" width="104" height="36" rx="5" fill="#e5e7eb" stroke="#b8b2a7" stroke-width="1"/><text x="940" y="573" class="tiny" text-anchor="middle">impact</text><rect x="1026" y="552" width="78" height="30" rx="4" fill="#242830" stroke="#111" stroke-width="1"/><text x="1065" y="570" style="font: 700 9px Arial, sans-serif; fill: #fff;" text-anchor="middle">Break</text><rect x="62" y="602" width="104" height="36" rx="5" fill="#dcfce7" stroke="#b8b2a7" stroke-width="1"/><text x="114" y="625" class="tiny" text-anchor="middle">kick end</text><rect x="180" y="602" width="104" height="36" rx="5" fill="#fff0cf" stroke="#b8b2a7" stroke-width="1"/><text x="232" y="625" class="tiny" text-anchor="middle">clap end</text><rect x="298" y="602" width="104" height="36" rx="5" fill="#dbeafe" stroke="#b8b2a7" stroke-width="1"/><text x="350" y="625" class="tiny" text-anchor="middle">hat end</text><rect x="416" y="602" width="104" height="36" rx="5" fill="#ede9fe" stroke="#b8b2a7" stroke-width="1"/><text x="468" y="625" class="tiny" text-anchor="middle">bass end</text><rect x="534" y="602" width="104" height="36" rx="5" fill="#ffe4e6" stroke="#b8b2a7" stroke-width="1"/><text x="586" y="625" class="tiny" text-anchor="middle">chord end</text><rect x="652" y="602" width="104" height="36" rx="5" fill="#ccfbf1" stroke="#b8b2a7" stroke-width="1"/><text x="704" y="625" class="tiny" text-anchor="middle">final hook</text><rect x="770" y="602" width="104" height="36" rx="5" fill="#f3e8ff" stroke="#b8b2a7" stroke-width="1"/><text x="822" y="625" class="tiny" text-anchor="middle">tail</text><rect x="888" y="602" width="104" height="36" rx="5" fill="#e5e7eb" stroke="#b8b2a7" stroke-width="1"/><text x="940" y="625" class="tiny" text-anchor="middle">verb tail</text><rect x="1026" y="604" width="78" height="30" rx="4" fill="#242830" stroke="#111" stroke-width="1"/><text x="1065" y="622" style="font: 700 9px Arial, sans-serif; fill: #fff;" text-anchor="middle">Tag/End</text>
      <rect x="72" y="668" width="970" height="34" rx="8" fill="#fff7de" stroke="#e0b54b" stroke-width="1"/>
      <text x="96" y="690" class="label" text-anchor="start">Legal practice rule: rebuild the feel with your own sounds, cleared vocals, or a lead-synth stand-in.</text>


</svg>
